Alexander Dumas' novel is updated with an eastern influence as D'Artagnan attempts to join the king's elite guards, the Royal Musketeers, and find the man who killed his parents..
 
http://www.imdb.com/title/tt0246544/

Subs: Dutch, English (srt).

Frankrijk, de zeventiende eeuw. Het land is in chaos. Kardinaal Richelieu probeert koning Louis XIII van de troon te stoten en zelf de macht te grijpen. Daarvoor heeft hij een privé-leger gecreëerd, dat onder aanvoering staat van de sadistische Febre. Tijdens één van hun plunderingen worden de ouders van de kleine D'Artagnan in koelen bloede door Febre vermoord. Het jongetje groeit op met maar één doel voor ogen: net zoals zijn vader een Musketier worden en wraak nemen op Febre...
 
http://www.moviemeter.nl/film/3627

Ondertitels: English, Nederlands.

General
Complete name                    : The Musketeer-AC3-XviD-DVDRip 2001\The Musketeer-AC3-XviD-DVDRip 2001.avi
Format                           : AVI
Format/Info                      : Audio Video Interleave
File size                        : 1.46 GiB
Duration                         : 1h 39mn
Overall bit rate                 : 2 094 Kbps
Writing application              : VirtualDubMod 1.5.4.1 (build 2178/release)
Writing library                  : VirtualDubMod build 2178/release
Source                           : Original Pal Retail

Video
ID                               : 0
Format                           : MPEG-4 Visual
Format profile                   : Simple@L3
Format settings, BVOP            : No
Format settings, QPel            : No
Format settings, GMC             : No warppoints
Format settings, Matrix          : Default (H.263)
Codec ID                         : XVID
Codec ID/Hint                    : XviD
Duration                         : 1h 39mn
Bit rate                         : 1 636 Kbps
Width                            : 720 pixels
Height                           : 304 pixels
Display aspect ratio             : 2.35:1
Frame rate                       : 25.000 fps
Resolution                       : 8 bits
Colorimetry                      : 4:2:0
Scan type                        : Progressive
Bits/(Pixel*Frame)               : 0.299
Stream size                      : 1.14 GiB (78%)
Writing library                  : XviD 1.1.2 (UTC 2006-11-01)

Audio
ID                               : 1
Format                           : AC-3
Format/Info                      : Audio Coding 3
Codec ID                         : 2000
Duration                         : 1h 39mn
Bit rate mode                    : Constant
Bit rate                         : 448 Kbps
Channel(s)                       : 6 channels
Channel positions                : Front: L C R, Surround: L R, LFE
Sampling rate                    : 48.0 KHz
Stream size                      : 320 MiB (21%)
Alignment                        : Split accross interleaves
Interleave, duration             : 40 ms (1.00 video frame)
Interleave, preload duration     : 500 ms

TBS.